<svg width="880" height="444" viewBox="0 0 880 444" fill="none" xmlns="http://www.w3.org/2000/svg">
<rect width="880" height="444" rx="10" fill="#232323"/>
<path d="M102.261 193.94V178.727H173.938V193.94H147.219V266H128.98V193.94H102.261ZM185.741 266V178.727H244.548V193.94H204.193V214.736H241.523V229.949H204.193V250.787H244.719V266H185.741ZM276.519 178.727L294.119 208.472H294.8L312.485 178.727H333.323L306.69 222.364L333.92 266H312.698L294.8 236.213H294.119L276.221 266H255.085L282.4 222.364L255.596 178.727H276.519ZM341.675 193.94V178.727H413.352V193.94H386.633V266H368.394V193.94H341.675ZM443.607 178.727V266H425.156V178.727H443.607ZM458.788 266V178.727H516.572V193.94H477.24V214.736H512.737V229.949H477.24V266H458.788ZM523.87 178.727H544.538L564.438 216.312H565.29L585.191 178.727H605.859L574.026 235.148V266H555.702V235.148L523.87 178.727ZM618.004 267.108C615.191 267.108 612.776 266.114 610.759 264.125C608.771 262.108 607.776 259.693 607.776 256.881C607.776 254.097 608.771 251.71 610.759 249.722C612.776 247.733 615.191 246.739 618.004 246.739C620.731 246.739 623.117 247.733 625.163 249.722C627.208 251.71 628.231 254.097 628.231 256.881C628.231 258.756 627.748 260.474 626.782 262.037C625.844 263.571 624.609 264.807 623.075 265.744C621.54 266.653 619.85 267.108 618.004 267.108ZM678.419 178.727H696.658V239.58C696.658 245.205 695.393 250.091 692.865 254.239C690.365 258.386 686.885 261.582 682.425 263.827C677.964 266.071 672.78 267.193 666.871 267.193C661.615 267.193 656.842 266.27 652.553 264.423C648.291 262.548 644.911 259.707 642.411 255.901C639.911 252.065 638.675 247.25 638.703 241.455H657.07C657.126 243.756 657.595 245.73 658.476 247.378C659.385 248.997 660.621 250.247 662.183 251.128C663.774 251.98 665.649 252.406 667.808 252.406C670.081 252.406 671.999 251.923 673.561 250.957C675.152 249.963 676.359 248.514 677.183 246.611C678.007 244.707 678.419 242.364 678.419 239.58V178.727ZM759.257 203.827C758.916 200.389 757.453 197.719 754.868 195.815C752.283 193.912 748.774 192.96 744.342 192.96C741.331 192.96 738.788 193.386 736.714 194.239C734.641 195.062 733.05 196.213 731.942 197.69C730.862 199.168 730.322 200.844 730.322 202.719C730.266 204.281 730.592 205.645 731.303 206.81C732.041 207.974 733.05 208.983 734.328 209.835C735.607 210.659 737.084 211.384 738.76 212.009C740.436 212.605 742.226 213.116 744.129 213.543L751.97 215.418C755.777 216.27 759.271 217.406 762.453 218.827C765.635 220.247 768.391 221.994 770.72 224.068C773.05 226.142 774.854 228.585 776.132 231.398C777.439 234.21 778.107 237.435 778.135 241.071C778.107 246.412 776.743 251.043 774.044 254.963C771.374 258.855 767.51 261.881 762.453 264.04C757.425 266.17 751.359 267.236 744.257 267.236C737.212 267.236 731.075 266.156 725.848 263.997C720.649 261.838 716.587 258.642 713.661 254.409C710.763 250.148 709.243 244.878 709.101 238.599H726.956C727.155 241.526 727.993 243.969 729.47 245.929C730.976 247.861 732.979 249.324 735.479 250.318C738.007 251.284 740.862 251.767 744.044 251.767C747.169 251.767 749.882 251.312 752.183 250.403C754.513 249.494 756.317 248.23 757.595 246.611C758.874 244.991 759.513 243.131 759.513 241.028C759.513 239.068 758.93 237.42 757.766 236.085C756.629 234.75 754.953 233.614 752.737 232.676C750.55 231.739 747.865 230.886 744.683 230.119L735.18 227.733C727.822 225.943 722.013 223.145 717.751 219.338C713.49 215.531 711.374 210.403 711.402 203.955C711.374 198.67 712.78 194.054 715.621 190.105C718.49 186.156 722.425 183.074 727.425 180.858C732.425 178.642 738.107 177.534 744.47 177.534C750.947 177.534 756.601 178.642 761.43 180.858C766.288 183.074 770.067 186.156 772.766 190.105C775.464 194.054 776.857 198.628 776.942 203.827H759.257Z" fill="#3FCF8E"/>
</svg>
